<mxfile host="app.diagrams.net" modified="2022-11-01T09:24:37.170Z" agent="5.0 (Macintosh; Intel Mac OS X 10_15_7) AppleWebKit/537.36 (KHTML, like Gecko) Chrome/106.0.0.0 Safari/537.36" etag="DClDab88ZgTDJO2C3dv2" version="20.5.1" type="github">
  <diagram id="NdVdh5Y-Vdcqmx6TnA_Z" name="第 1 页">
    <mxGraphModel dx="1554" dy="809" grid="1" gridSize="10" guides="1" tooltips="1" connect="1" arrows="1" fold="1" page="1" pageScale="1" pageWidth="827" pageHeight="1169" math="0" shadow="0">
      <root>
        <mxCell id="0" />
        <mxCell id="1" parent="0" />
        <mxCell id="kh6d8idskJDBuE_tJ0AI-2" value="" style="rounded=0;whiteSpace=wrap;html=1;" vertex="1" parent="1">
          <mxGeometry x="160" y="280" width="220" height="260" as="geometry" />
        </mxCell>
        <mxCell id="kh6d8idskJDBuE_tJ0AI-3" value="业务线服务：题库" style="text;html=1;resizable=0;autosize=1;align=center;verticalAlign=middle;points=[];fillColor=none;strokeColor=none;rounded=0;" vertex="1" parent="1">
          <mxGeometry x="210" y="250" width="120" height="30" as="geometry" />
        </mxCell>
        <mxCell id="kh6d8idskJDBuE_tJ0AI-6" value="" style="rounded=1;whiteSpace=wrap;html=1;" vertex="1" parent="1">
          <mxGeometry x="180" y="302.5" width="180" height="215" as="geometry" />
        </mxCell>
        <mxCell id="kh6d8idskJDBuE_tJ0AI-4" value="Broker 亲和组" style="rounded=1;whiteSpace=wrap;html=1;" vertex="1" parent="1">
          <mxGeometry x="210" y="360" width="120" height="60" as="geometry" />
        </mxCell>
        <mxCell id="kh6d8idskJDBuE_tJ0AI-5" value="Bookie 亲和组" style="rounded=1;whiteSpace=wrap;html=1;" vertex="1" parent="1">
          <mxGeometry x="210" y="430" width="120" height="60" as="geometry" />
        </mxCell>
        <mxCell id="kh6d8idskJDBuE_tJ0AI-7" value="&lt;font style=&quot;font-size: 11px;&quot;&gt;Namespace (百川服务实例)&lt;/font&gt;" style="text;html=1;resizable=0;autosize=1;align=center;verticalAlign=middle;points=[];fillColor=none;strokeColor=none;rounded=0;fontSize=9;" vertex="1" parent="1">
          <mxGeometry x="185" y="320" width="170" height="30" as="geometry" />
        </mxCell>
        <mxCell id="kh6d8idskJDBuE_tJ0AI-8" value="" style="rounded=0;whiteSpace=wrap;html=1;" vertex="1" parent="1">
          <mxGeometry x="440" y="280" width="220" height="260" as="geometry" />
        </mxCell>
        <mxCell id="kh6d8idskJDBuE_tJ0AI-9" value="业务线服务：智慧课堂" style="text;html=1;resizable=0;autosize=1;align=center;verticalAlign=middle;points=[];fillColor=none;strokeColor=none;rounded=0;" vertex="1" parent="1">
          <mxGeometry x="480" y="250" width="140" height="30" as="geometry" />
        </mxCell>
        <mxCell id="kh6d8idskJDBuE_tJ0AI-10" value="" style="rounded=1;whiteSpace=wrap;html=1;" vertex="1" parent="1">
          <mxGeometry x="460" y="302.5" width="180" height="215" as="geometry" />
        </mxCell>
        <mxCell id="kh6d8idskJDBuE_tJ0AI-11" value="Broker 亲和组" style="rounded=1;whiteSpace=wrap;html=1;" vertex="1" parent="1">
          <mxGeometry x="490" y="360" width="120" height="60" as="geometry" />
        </mxCell>
        <mxCell id="kh6d8idskJDBuE_tJ0AI-12" value="Bookie 亲和组" style="rounded=1;whiteSpace=wrap;html=1;" vertex="1" parent="1">
          <mxGeometry x="490" y="430" width="120" height="60" as="geometry" />
        </mxCell>
        <mxCell id="kh6d8idskJDBuE_tJ0AI-13" value="&lt;font style=&quot;font-size: 11px;&quot;&gt;Namespace (百川服务实例)&lt;/font&gt;" style="text;html=1;resizable=0;autosize=1;align=center;verticalAlign=middle;points=[];fillColor=none;strokeColor=none;rounded=0;fontSize=9;" vertex="1" parent="1">
          <mxGeometry x="465" y="320" width="170" height="30" as="geometry" />
        </mxCell>
        <mxCell id="kh6d8idskJDBuE_tJ0AI-14" value="" style="endArrow=none;html=1;rounded=0;fontSize=11;" edge="1" parent="1">
          <mxGeometry width="50" height="50" relative="1" as="geometry">
            <mxPoint x="410" y="560" as="sourcePoint" />
            <mxPoint x="410" y="240" as="targetPoint" />
          </mxGeometry>
        </mxCell>
      </root>
    </mxGraphModel>
  </diagram>
</mxfile>
